<?xml version="1.0" standalone="no"?>
<!DOCTYPE svg PUBLIC "-//W3C//DTD SVG 20010904//EN"
 "http://www.w3.org/TR/2001/REC-SVG-20010904/DTD/svg10.dtd">
<svg version="1.0" xmlns="http://www.w3.org/2000/svg"
 width="1785.000000pt" height="708.000000pt" viewBox="0 0 1785.000000 708.000000"
 preserveAspectRatio="xMidYMid meet">
<metadata>
Created by potrace 1.15, written by Peter Selinger 2001-2017
</metadata>
<g transform="translate(0.000000,708.000000) scale(0.100000,-0.100000)"
fill="#000000" stroke="none">
<path d="M12385 7074 c-258 -21 -619 -87 -869 -158 -1642 -472 -2865 -1845
-3140 -3523 -47 -284 -59 -466 -53 -808 6 -325 17 -448 63 -705 109 -602 347
-1182 695 -1695 113 -166 159 -220 76 -90 -369 581 -594 1192 -677 1840 -75
588 -28 1210 135 1778 601 2093 2635 3432 4795 3156 1132 -144 2169 -726 2879
-1616 142 -179 145 -182 75 -78 -297 442 -720 859 -1191 1173 -484 323 -1066
559 -1633 662 -292 53 -399 62 -760 65 -190 1 -367 1 -395 -1z"/>
<path d="M2008 4725 c-39 -26 -78 -95 -78 -138 0 -33 24 -94 48 -121 23 -26
90 -56 126 -56 42 0 112 36 137 72 48 67 42 160 -14 218 -39 40 -65 50 -130
50 -39 0 -62 -6 -89 -25z"/>
<path d="M960 4476 c-66 -22 -95 -98 -60 -154 61 -98 200 -61 200 54 0 34 -6
48 -30 72 -34 35 -66 43 -110 28z"/>
<path d="M646 4440 c-59 -18 -102 -81 -93 -137 17 -103 140 -148 210 -75 38
40 49 77 37 122 -10 38 -59 90 -85 90 -7 0 -19 2 -27 4 -7 2 -26 0 -42 -4z"/>
<path d="M1199 4421 c-38 -39 -39 -80 -1 -122 22 -25 36 -31 67 -31 31 0 45 6
67 31 36 40 36 80 2 120 -36 43 -93 44 -135 2z"/>
<path d="M1453 4370 c-26 -11 -43 -40 -43 -75 0 -39 16 -62 50 -74 97 -33 154
99 63 147 -25 14 -40 14 -70 2z"/>
<path d="M2080 4268 c-55 -38 -75 -73 -74 -129 2 -122 144 -189 236 -111 33
28 58 77 58 114 0 42 -38 103 -79 126 -50 28 -99 28 -141 0z"/>
<path d="M1610 4250 c-27 -27 -26 -71 3 -98 30 -28 68 -28 95 1 44 46 14 117
-48 117 -17 0 -39 -9 -50 -20z"/>
<path d="M2464 4226 c-39 -17 -71 -58 -85 -108 -9 -35 -7 -46 13 -86 27 -54
60 -80 110 -88 79 -13 168 64 168 146 0 50 -37 107 -85 130 -48 23 -78 25
-121 6z"/>
<path d="M1010 4163 c-28 -11 -59 -46 -70 -79 -21 -63 35 -134 105 -134 91 0
139 112 78 180 -28 31 -81 46 -113 33z"/>
<path d="M1268 4123 c-55 -34 -60 -102 -13 -149 72 -71 193 26 145 117 -12 22
-61 49 -87 49 -10 0 -30 -8 -45 -17z"/>
<path d="M671 4113 c-37 -20 -71 -73 -71 -113 0 -32 32 -84 65 -106 35 -23
100 -22 133 3 15 11 35 36 46 57 16 32 17 44 8 75 -25 81 -111 121 -181 84z"/>
<path d="M4540 4075 c-182 -41 -341 -167 -424 -337 -68 -138 -89 -225 -90
-388 -1 -170 18 -258 85 -398 40 -83 63 -115 122 -175 126 -126 279 -187 466
-187 189 1 331 53 451 166 156 148 230 335 230 585 0 227 -68 414 -201 554
-77 81 -147 126 -251 162 -93 32 -285 41 -388 18z m314 -91 c199 -51 351 -219
406 -445 27 -114 27 -284 0 -398 -54 -225 -208 -394 -405 -446 -76 -19 -224
-19 -300 0 -198 51 -346 208 -407 434 -30 109 -30 314 0 424 60 219 209 379
404 431 72 20 226 20 302 0z"/>
<path d="M9055 4080 c-176 -28 -307 -119 -355 -248 -18 -47 -21 -73 -18 -147
5 -105 23 -150 84 -212 74 -74 163 -108 420 -163 82 -18 183 -43 225 -56 159
-50 239 -141 239 -273 0 -240 -282 -377 -604 -295 -181 46 -295 169 -312 334
l-7 70 -43 0 -44 0 0 -57 c0 -148 75 -283 201 -364 146 -93 442 -121 624 -59
83 28 133 61 189 119 74 80 90 126 91 251 0 95 -3 110 -28 162 -43 87 -126
150 -252 192 -27 9 -138 36 -245 60 -225 51 -290 73 -353 121 -61 47 -87 103
-87 188 0 82 15 122 69 180 140 151 492 153 658 4 51 -46 88 -116 103 -194
l13 -63 47 0 48 0 -5 43 c-3 23 -11 67 -20 97 -39 147 -153 249 -326 294 -75
19 -235 27 -312 16z"/>
<path d="M1486 4039 c-20 -16 -26 -29 -26 -59 0 -72 84 -106 135 -55 73 72
-28 178 -109 114z"/>
<path d="M3310 3340 l0 -720 50 0 50 0 0 720 0 720 -50 0 -50 0 0 -720z"/>
<path d="M5730 4015 l0 -45 253 0 252 0 -3 -675 -2 -675 50 0 50 0 0 675 0
675 250 0 250 0 0 45 0 45 -550 0 -550 0 0 -45z"/>
<path d="M7591 4038 c-5 -13 -133 -333 -285 -711 -152 -379 -276 -693 -276
-698 0 -5 22 -9 49 -9 l49 0 90 228 c158 398 378 954 407 1030 22 55 31 69 36
55 8 -23 485 -1272 494 -1295 6 -14 19 -18 56 -18 27 0 49 4 49 10 0 8 -228
592 -490 1255 l-67 170 -52 3 c-46 3 -52 1 -60 -20z"/>
<path d="M10350 3330 l0 -720 50 0 50 0 0 320 0 320 293 0 c314 0 359 5 455
54 59 30 127 102 155 164 29 64 36 245 13 325 -36 123 -131 213 -256 241 -55
13 -137 16 -414 16 l-346 0 0 -720z m766 603 c96 -51 143 -118 163 -229 28
-155 -58 -304 -203 -351 -41 -13 -108 -17 -338 -21 l-288 -4 0 317 0 316 313
-3 c299 -3 314 -4 353 -25z"/>
<path d="M11930 3330 l0 -720 50 0 50 0 0 350 0 350 455 0 455 0 0 -350 0
-350 45 0 45 0 0 720 0 720 -45 0 -45 0 0 -325 0 -325 -455 0 -455 0 0 325 0
325 -50 0 -50 0 0 -720z"/>
<path d="M13680 3330 l0 -720 490 0 490 0 0 45 0 45 -440 0 -440 0 0 305 0
305 410 0 410 0 0 45 0 45 -410 0 -410 0 0 280 0 280 435 0 435 0 0 45 0 45
-485 0 -485 0 0 -720z"/>
<path d="M15200 3331 l0 -721 50 0 50 0 0 325 0 325 293 0 c319 0 366 -6 435
-54 82 -57 110 -155 112 -391 1 -66 7 -138 14 -160 l12 -40 57 -3 c31 -2 57
-1 57 1 0 2 -8 19 -17 38 -13 26 -19 75 -24 209 -4 96 -12 197 -18 224 -27
116 -85 175 -216 221 -19 7 -18 8 5 15 138 40 236 170 247 328 13 188 -69 318
-235 374 -64 21 -84 23 -444 26 l-378 3 0 -720z m802 591 c115 -56 164 -144
156 -275 -9 -130 -73 -224 -186 -269 -54 -21 -72 -23 -364 -26 l-308 -3 0 306
0 306 318 -3 317 -3 67 -33z"/>
<path d="M16870 3330 l0 -720 490 0 490 0 0 45 0 45 -445 0 -445 0 0 305 0
305 410 0 410 0 0 45 0 45 -410 0 -410 0 0 280 0 280 440 0 440 0 0 45 0 45
-485 0 -485 0 0 -720z"/>
<path d="M314 3981 c-53 -32 -74 -68 -74 -125 0 -151 191 -203 270 -74 74 122
-75 273 -196 199z"/>
<path d="M1680 3947 c-56 -28 -48 -110 13 -131 22 -8 33 -6 55 11 68 50 8 158
-68 120z"/>
<path d="M2019 3851 c-32 -32 -39 -46 -39 -77 0 -51 18 -83 60 -112 52 -35
113 -26 157 22 76 83 18 206 -97 206 -36 0 -48 -6 -81 -39z"/>
<path d="M2420 3827 c-33 -17 -70 -74 -70 -109 0 -16 7 -42 15 -58 61 -118
235 -78 235 55 0 93 -97 154 -180 112z"/>
<path d="M1144 3810 c-36 -14 -64 -59 -64 -102 0 -54 51 -108 102 -108 79 0
137 84 103 150 -30 59 -86 83 -141 60z"/>
<path d="M1411 3776 c-26 -15 -50 -51 -51 -79 0 -30 27 -72 55 -85 42 -19 74
-14 106 17 77 78 -14 200 -110 147z"/>
<path d="M804 3761 c-17 -10 -39 -35 -48 -56 -61 -128 117 -243 208 -135 93
111 -37 266 -160 191z"/>
<path d="M2723 3715 c-67 -29 -92 -118 -53 -183 20 -32 71 -62 106 -62 31 0
87 34 105 64 39 64 11 154 -56 182 -42 17 -61 17 -102 -1z"/>
<path d="M1622 3687 c-30 -32 -29 -81 3 -112 72 -73 178 28 114 109 -27 35
-86 36 -117 3z"/>
<path d="M464 3640 c-11 -4 -35 -25 -53 -46 -31 -35 -33 -41 -29 -96 4 -52 9
-63 40 -95 31 -31 45 -37 90 -40 41 -3 60 1 86 16 95 60 95 193 0 251 -34 21
-96 25 -134 10z"/>
<path d="M1919 3539 c-78 -84 9 -219 114 -176 46 20 67 52 67 105 0 63 -40
102 -105 102 -40 0 -52 -5 -76 -31z"/>
<path d="M2294 3486 c-39 -39 -44 -77 -18 -127 18 -36 74 -63 114 -54 31 7 74
49 85 83 9 32 -12 88 -42 112 -42 33 -98 27 -139 -14z"/>
<path d="M1145 3405 c-50 -49 -15 -135 55 -135 41 0 80 39 80 80 0 41 -39 80
-80 80 -19 0 -40 -9 -55 -25z"/>
<path d="M117 3407 c-42 -14 -94 -59 -108 -94 -5 -14 -9 -48 -9 -77 0 -68 38
-125 99 -150 53 -21 86 -20 136 3 48 22 69 44 91 96 52 125 -78 263 -209 222z"/>
<path d="M2624 3401 c-36 -16 -64 -60 -64 -103 0 -32 7 -47 34 -74 70 -70 175
-26 176 73 0 76 -79 132 -146 104z"/>
<path d="M1799 3315 c-32 -17 -52 -63 -43 -98 9 -37 59 -77 96 -77 19 0 39 10
59 29 78 79 -14 199 -112 146z"/>
<path d="M914 3294 c-20 -19 -24 -31 -20 -52 15 -60 79 -80 121 -37 30 30 31
54 4 89 -27 35 -71 35 -105 0z"/>
<path d="M2159 3251 c-42 -42 -41 -99 2 -135 17 -15 43 -26 59 -26 16 0 42 11
59 26 25 21 31 33 31 66 0 51 -43 98 -90 98 -22 0 -41 -9 -61 -29z"/>
<path d="M1211 3206 c-26 -15 -50 -51 -51 -79 0 -30 27 -72 55 -85 42 -19 74
-14 106 17 77 78 -14 200 -110 147z"/>
<path d="M1654 3150 c-30 -12 -54 -49 -54 -81 0 -40 54 -83 94 -75 76 15 92
117 25 151 -32 17 -36 17 -65 5z"/>
<path d="M2453 3136 c-21 -19 -28 -33 -28 -64 0 -46 17 -70 62 -88 61 -26 123
19 123 89 0 77 -96 115 -157 63z"/>
<path d="M950 3133 c-71 -26 -82 -116 -18 -149 79 -41 155 54 96 120 -25 26
-54 37 -78 29z"/>
<path d="M672 3100 c-45 -42 -15 -120 46 -120 34 0 72 37 72 69 0 29 -43 71
-73 71 -13 0 -33 -9 -45 -20z"/>
<path d="M2023 3095 c-59 -25 -69 -80 -24 -126 34 -34 68 -37 104 -9 74 59 8
172 -80 135z"/>
<path d="M1311 2964 c-61 -51 -49 -144 25 -179 78 -37 161 23 150 110 -10 86
-109 125 -175 69z"/>
<path d="M1831 2964 c-12 -15 -21 -35 -21 -46 0 -27 45 -68 75 -68 30 0 75 41
75 68 0 35 -38 72 -75 72 -24 0 -39 -7 -54 -26z"/>
<path d="M2295 2965 c-51 -50 -17 -135 54 -135 47 0 81 33 81 79 0 42 -38 81
-80 81 -19 0 -40 -9 -55 -25z"/>
<path d="M661 2904 c-29 -36 -27 -76 5 -108 52 -51 134 -19 134 53 0 76 -94
112 -139 55z"/>
<path d="M959 2891 c-37 -37 -38 -79 -4 -119 61 -72 165 -31 165 64 0 39 -51
84 -95 84 -27 0 -44 -8 -66 -29z"/>
<path d="M2135 2855 c-14 -13 -25 -35 -25 -49 0 -33 55 -79 84 -70 61 18 77
86 30 123 -35 27 -59 26 -89 -4z"/>
<path d="M1498 2720 c-39 -38 -40 -42 -36 -91 4 -40 12 -58 37 -82 28 -28 38
-32 87 -32 51 0 58 3 90 37 27 30 34 46 34 79 0 77 -52 129 -130 129 -36 0
-48 -6 -82 -40z"/>
<path d="M724 2702 c-53 -43 -54 -104 -1 -148 25 -21 38 -25 66 -20 80 12 110
110 50 160 -36 30 -84 34 -115 8z"/>
<path d="M1090 2677 c-60 -46 -66 -113 -16 -163 46 -46 101 -48 148 -5 28 25
33 36 33 76 0 40 -5 51 -33 76 -25 23 -42 29 -75 29 -23 0 -49 -6 -57 -13z"/>
<path d="M1820 2537 c-104 -55 -106 -196 -4 -254 47 -27 87 -29 134 -5 109 54
107 213 -3 262 -55 25 -75 25 -127 -3z"/>
<path d="M842 2474 c-60 -41 -65 -123 -11 -168 41 -35 69 -40 112 -23 40 17
67 60 67 108 0 47 -56 99 -107 99 -21 0 -49 -7 -61 -16z"/>
<path d="M1301 2453 c-100 -50 -91 -195 16 -232 145 -51 230 166 90 232 -44
21 -63 21 -106 0z"/>
<path d="M2225 2386 c-42 -18 -93 -79 -101 -121 -20 -108 58 -205 166 -205 60
0 105 23 140 72 29 39 31 48 28 103 -3 43 -10 70 -27 93 -44 63 -136 89 -206
58z"/>
<path d="M1075 2259 c-72 -21 -111 -102 -82 -172 36 -84 141 -102 204 -33 28
30 33 43 33 86 0 43 -4 54 -35 85 -20 19 -42 35 -50 35 -7 0 -19 2 -27 4 -7 2
-27 0 -43 -5z"/>
<path d="M1593 2245 c-17 -7 -44 -32 -59 -54 -23 -35 -26 -48 -22 -93 5 -45
11 -57 46 -90 37 -34 47 -38 92 -38 63 0 102 19 129 63 76 123 -53 270 -186
212z"/>
</g>
</svg>
